<?xml version="1.0" ?><svg id="Layer_1" style="enable-background:new 0 0 64 64;" version="1.1" viewBox="0 0 64 64" xml:space="preserve" xmlns="http://www.w3.org/2000/svg" xmlns:xlink="http://www.w3.org/1999/xlink"><style type="text/css">
	.st0{fill:#62BEE7;}
	.st1{fill:#474E5E;}
	.st2{fill:#F3EEE4;}
	.st3{fill:#FFFFFF;}
	.st4{fill:#E8DCCA;}
	.st5{opacity:0.1;fill:#231F20;}
	.st6{fill:#506268;}
	.st7{fill:#EB5151;}
	.st8{fill:#C64444;}
	.st9{fill:#9CCB5B;}
	.st10{fill:#404A4C;}
	.st11{fill:#676767;}
	.st12{fill:#E0E1E5;}
	.st13{fill:#9D9EA0;}
	.st14{fill:#B3B4B7;}
	.st15{opacity:0.1;}
	.st16{fill:#231F20;}
	.st17{fill:#FACC20;}
	.st18{fill:#FDEF34;}
	.st19{fill:#F7A90B;}
	.st20{fill:#20B8EA;}
	.st21{fill:#00A8EA;}
	.st22{fill:#33D3F4;}
	.st23{opacity:0.25;fill:#FFFFFF;}
	.st24{fill:#CACBCE;}
	.st25{fill:#2E3545;}
	.st26{fill:#8DAF4A;}
	.st27{fill:#F9C2AF;}
	.st28{fill:#AFDDF4;}
	.st29{fill:#677177;}
	.st30{fill:#FFEDB3;}
	.st31{fill:#695652;}
	.st32{fill:#30A7BF;}
	.st33{fill:#4D5556;}
	.st34{opacity:0.35;}
	.st35{fill:#FFCB04;}
	.st36{fill:#99E9FA;}
	.st37{opacity:0.2;}
	.st38{opacity:3.000000e-02;}
	.st39{fill:#9ECA5B;}
	.st40{fill:#98BA56;}
	.st41{fill:#40EEFF;}
	.st42{fill:#FF6A52;}
	.st43{opacity:0.1;fill:#FFFFFF;}
	.st44{opacity:0.4;}
	.st45{fill:#57606D;}
	.st46{fill:#BACA5B;}
	.st47{opacity:0.25;}
	.st48{opacity:5.000000e-02;fill:#231F20;}
	.st49{opacity:0.2;fill:#FFFFFF;}
	.st50{opacity:0.3;}
	.st51{fill:#FFD82F;}
	.st52{fill:#F4C121;}
	.st53{fill:#EF9D0A;}
	.st54{fill:#F9E532;}
	.st55{fill:#F4C01E;}
	.st56{fill:#FFE14D;}
	.st57{fill:#B7C156;}
	.st58{fill:#DBA92C;}
	.st59{fill:#363D4D;}
	.st60{fill:#3F4656;}
	.st61{fill:#463E33;}
	.st62{fill:none;}
	.st63{opacity:4.000000e-02;}
	.st64{fill:#4DB6AC;}
	.st65{fill:#CADE49;}
	.st66{fill:#9FD343;}
	.st67{fill:#AAD643;}
	.st68{fill:#82C736;}
	.st69{opacity:0.3;fill:#FFFFFF;}
	.st70{fill:#FFD640;}
	.st71{opacity:0.5;}
	.st72{opacity:0.6;}
</style><g><circle class="st7" cx="32" cy="32" r="32"/><g><g><rect class="st17" height="4.5" width="16.4" x="38.7" y="45.3"/></g><g><rect class="st18" height="4.5" width="16.4" x="37.2" y="40.8"/></g><g><rect class="st17" height="4.5" width="16.4" x="38.7" y="36.4"/></g><g class="st15"><polygon class="st16" points="55.1,37 38.7,36.4 55.1,36.4    "/></g><g class="st15"><polygon class="st16" points="55.1,45.9 38.7,45.3 55.1,45.3    "/></g><g><rect class="st18" height="4.5" width="16.4" x="37.2" y="31.9"/></g><g><circle class="st17" cx="45.4" cy="23" r="8.9"/></g><g><circle class="st18" cx="45.4" cy="23" r="6.7"/></g><g><rect class="st3" height="20.9" width="6" x="18.6" y="28.9"/></g><g><rect class="st3" height="14.9" width="6" x="8.9" y="34.9"/></g><g><rect class="st3" height="41.8" width="6" x="28.3" y="7.6"/></g><g><rect class="st31" height="12.9" width="6" x="18.6" y="36.9"/></g><g><rect class="st31" height="5.5" width="6" x="8.9" y="44.3"/></g><g><rect class="st31" height="29.9" width="6" x="28.3" y="19.9"/></g><g><path class="st41" d="M26.8,14.8H23C21.6,26,9.6,26.1,9.6,26.1s8.2-2.8,9-11.3h-3.8l5.9-7.5L26.8,14.8z"/></g><g><path class="st7" d="M48.1,23.8c-0.1-0.3-0.4-1.1-2.3-1.5V20c0.4,0.1,0.7,0.4,0.8,0.9c0.1,0.4,0.3,0.6,0.7,0.6     c0.2,0,1.3-0.3,0.2-1.8c-0.2-0.2-0.5-0.6-1.7-0.8v-0.9h-0.7V19c-2.1,0.2-2.3,1.6-2.3,2.2c0,1.8,1.8,2.2,2.3,2.3V26     c-0.9-0.2-1.1-1.1-1.2-1.4c-0.1-0.4-0.5-0.4-0.6-0.4c-0.5,0-0.7,0.5-0.7,0.7c0,0.2,0.1,1.3,1.4,2c0.3,0.2,0.7,0.3,1.1,0.3l0,0.9     h0.7v-0.9c0.5,0,0.9-0.2,1.3-0.4C48.1,26.1,48.5,24.9,48.1,23.8z M45.1,22.1c-0.5-0.3-0.9-0.3-1-1c0-0.3,0.1-0.8,1-1V22.1z      M45.8,26v-2.3c1.1,0.4,1.1,0.8,1.1,1.2C46.9,25.1,46.9,25.8,45.8,26z"/></g><g class="st15"><polygon class="st16" points="37.2,41.4 37.2,40.8 53.6,40.8    "/></g><g><g><g><rect class="st19" height="0.8" width="0.6" x="45.1" y="14.9"/></g><g><rect class="st19" height="0.8" width="0.6" x="45.1" y="30.3"/></g></g><g><g><g><rect class="st19" height="0.8" transform="matrix(0.9397 -0.342 0.342 0.9397 -2.8019 15.582)" width="0.6" x="42.5" y="15.3"/></g><g><rect class="st19" height="0.8" transform="matrix(0.9397 -0.342 0.342 0.9397 -7.4587 18.2706)" width="0.6" x="47.8" y="29.9"/></g></g><g><g><rect class="st19" height="0.8" transform="matrix(0.766 -0.6428 0.6428 0.766 -1.5143 30.0005)" width="0.6" x="40.1" y="16.7"/></g><g><rect class="st19" height="0.8" transform="matrix(0.766 -0.6428 0.6428 0.766 -6.8098 39.1726)" width="0.6" x="50.1" y="28.5"/></g></g><g><g><rect class="st19" height="0.8" transform="matrix(0.5 -0.866 0.866 0.5 2.788 43.1091)" width="0.6" x="38.4" y="18.7"/></g><g><rect class="st19" height="0.8" transform="matrix(0.5 -0.866 0.866 0.5 2.788 58.5921)" width="0.6" x="51.8" y="26.5"/></g></g><g><g><rect class="st19" height="0.8" transform="matrix(0.1736 -0.9848 0.9848 0.1736 9.9054 55.1378)" width="0.6" x="37.5" y="21.3"/></g><g><rect class="st19" height="0.8" transform="matrix(0.1736 -0.9848 0.9848 0.1736 19.8577 72.3756)" width="0.6" x="52.7" y="23.9"/></g></g><g><g><rect class="st19" height="0.6" transform="matrix(0.9848 -0.1736 0.1736 0.9848 -3.6548 6.9353)" width="0.8" x="37.4" y="24"/></g><g><rect class="st19" height="0.6" transform="matrix(0.9848 -0.1736 0.1736 0.9848 -2.9563 9.5422)" width="0.8" x="52.6" y="21.3"/></g></g><g><g><rect class="st19" height="0.6" transform="matrix(0.866 -0.5 0.5 0.866 -8.2522 22.9652)" width="0.8" x="38.3" y="26.6"/></g><g><rect class="st19" height="0.6" transform="matrix(0.866 -0.5 0.5 0.866 -2.5851 28.6324)" width="0.8" x="51.7" y="18.8"/></g></g><g><g><rect class="st19" height="0.6" transform="matrix(0.6428 -0.766 0.766 0.6428 -7.7188 41.329)" width="0.8" x="40" y="28.6"/></g><g><rect class="st19" height="0.6" transform="matrix(0.6428 -0.766 0.766 0.6428 4.922 44.7161)" width="0.8" x="50" y="16.8"/></g></g><g><g><rect class="st19" height="0.6" transform="matrix(0.342 -0.9397 0.9397 0.342 -0.3078 60.1311)" width="0.8" x="42.4" y="30"/></g><g><rect class="st19" height="0.6" transform="matrix(0.342 -0.9397 0.9397 0.342 16.8484 55.5341)" width="0.8" x="47.7" y="15.4"/></g></g></g></g><g class="st34"><path class="st3" d="M50.5,15.8L38.2,28.1c-0.4-0.5-0.7-1.1-1-1.8l11.6-11.6C49.4,15.1,50,15.4,50.5,15.8z"/><path class="st3" d="M53.6,19.7L42.1,31.2c-1.1-0.4-2-1-2.8-1.8l12.5-12.5C52.6,17.7,53.2,18.6,53.6,19.7z"/></g><g class="st15"><polygon class="st16" points="14.8,34.9 12.8,49.8 14.8,49.8    "/></g><g class="st15"><polygon class="st16" points="24.5,28.9 22.6,49.8 24.5,49.8    "/></g><g class="st15"><polygon class="st16" points="34.2,7.6 32.2,49.8 34.2,49.8    "/></g><path class="st5" d="M20.8,7.3C22.6,24.9,9.6,26.1,9.6,26.1S21.6,26,23,14.8h3.7L20.8,7.3z"/></g></g></svg>