<?xml version="1.0" ?><svg id="Layer_1" style="enable-background:new 0 0 64 64;" version="1.1" viewBox="0 0 64 64" xml:space="preserve" xmlns="http://www.w3.org/2000/svg" xmlns:xlink="http://www.w3.org/1999/xlink"><style type="text/css">
	.st0{fill:#62BEE7;}
	.st1{fill:#474E5E;}
	.st2{fill:#F3EEE4;}
	.st3{fill:#FFFFFF;}
	.st4{fill:#E8DCCA;}
	.st5{opacity:0.1;fill:#231F20;}
	.st6{fill:#506268;}
	.st7{fill:#EB5151;}
	.st8{fill:#C64444;}
	.st9{fill:#9CCB5B;}
	.st10{fill:#404A4C;}
	.st11{fill:#676767;}
	.st12{fill:#E0E1E5;}
	.st13{fill:#9D9EA0;}
	.st14{fill:#B3B4B7;}
	.st15{opacity:0.1;}
	.st16{fill:#231F20;}
	.st17{fill:#FACC20;}
	.st18{fill:#FDEF34;}
	.st19{fill:#F7A90B;}
	.st20{fill:#20B8EA;}
	.st21{fill:#00A8EA;}
	.st22{fill:#33D3F4;}
	.st23{opacity:0.25;fill:#FFFFFF;}
	.st24{fill:#CACBCE;}
	.st25{fill:#2E3545;}
	.st26{fill:#8DAF4A;}
	.st27{fill:#F9C2AF;}
	.st28{fill:#AFDDF4;}
	.st29{fill:#677177;}
	.st30{fill:#FFEDB3;}
	.st31{fill:#695652;}
	.st32{fill:#30A7BF;}
	.st33{fill:#4D5556;}
	.st34{opacity:0.35;}
	.st35{fill:#FFCB04;}
	.st36{fill:#99E9FA;}
	.st37{opacity:0.2;}
	.st38{opacity:3.000000e-02;}
	.st39{fill:#9ECA5B;}
	.st40{fill:#98BA56;}
	.st41{fill:#40EEFF;}
	.st42{fill:#FF6A52;}
	.st43{opacity:0.1;fill:#FFFFFF;}
	.st44{opacity:0.4;}
	.st45{fill:#57606D;}
	.st46{fill:#BACA5B;}
	.st47{opacity:0.25;}
	.st48{opacity:5.000000e-02;fill:#231F20;}
	.st49{opacity:0.2;fill:#FFFFFF;}
	.st50{opacity:0.3;}
	.st51{fill:#FFD82F;}
	.st52{fill:#F4C121;}
	.st53{fill:#EF9D0A;}
	.st54{fill:#F9E532;}
	.st55{fill:#F4C01E;}
	.st56{fill:#FFE14D;}
	.st57{fill:#B7C156;}
	.st58{fill:#DBA92C;}
	.st59{fill:#363D4D;}
	.st60{fill:#3F4656;}
	.st61{fill:#463E33;}
	.st62{fill:none;}
	.st63{opacity:4.000000e-02;}
	.st64{fill:#4DB6AC;}
	.st65{fill:#CADE49;}
	.st66{fill:#9FD343;}
	.st67{fill:#AAD643;}
	.st68{fill:#82C736;}
	.st69{opacity:0.3;fill:#FFFFFF;}
	.st70{fill:#FFD640;}
	.st71{opacity:0.5;}
	.st72{opacity:0.6;}
</style><g><circle class="st26" cx="32" cy="32" r="32"/><g><line class="st26" x1="27.5" x2="35.1" y1="49.8" y2="42.2"/><g><path class="st19" d="M37.4,45.1l-5.2-5.2l17.3-17.3c1.4-1.4,3.7-1.4,5.1,0l0.2,0.2c1.4,1.4,1.4,3.7,0,5.1L37.4,45.1z"/></g><g><rect class="st7" height="3" transform="matrix(0.7071 0.7071 -0.7071 0.7071 38.5143 -16.3047)" width="7.4" x="35.2" y="36.9"/></g><g><polygon class="st4" points="42.3,40.2 45.3,37.3 45.3,55.6 12.8,55.6 12.8,52.7 42.3,52.7    "/></g><g><polygon class="st3" points="42.3,9.9 42.3,29.7 32.1,39.9 37.4,45.1 42.3,40.2 42.3,52.7 9.8,52.7 9.8,9.9    "/></g><circle class="st21" cx="17.3" cy="18.7" r="4.4"/><g><circle class="st22" cx="17.3" cy="31.3" r="4.4"/></g><circle class="st21" cx="17.3" cy="43.8" r="4.4"/><g><polygon class="st4" points="45.3,12.8 45.3,26.8 42.3,29.7 42.3,12.8    "/></g><path class="st1" d="M33.2,41L28,44.1c0,0,0.8,4.4-0.5,5.7l7.3-7.3L33.2,41z"/><path class="st25" d="M34.8,42.5l-7.3,7.3h0c1.5-1.5,5.7-0.5,5.7-0.5l3.1-5.2L34.8,42.5z"/><path class="st3" d="M34.3,43l-6.2,6.4c-0.2,0.1-0.4,0.3-0.6,0.4c0.2-0.2,0.3-0.3,0.4-0.6v0L34.3,43z"/><circle class="st3" cx="31.6" cy="45.7" r="0.9"/><g><path class="st17" d="M44.1,36.4c-0.2,0-0.5-0.1-0.7-0.3c-0.4-0.4-0.4-1,0-1.4l8.2-8.2c0.4-0.4,1-0.4,1.4,0c0.4,0.4,0.4,1,0,1.4     l-8.2,8.2C44.6,36.3,44.3,36.4,44.1,36.4z"/></g><g><rect class="st24" height="1.7" width="13.8" x="26.1" y="16.2"/><rect class="st14" height="1.7" width="8.7" x="26.1" y="19.6"/></g><g><rect class="st24" height="1.7" width="13.8" x="26.1" y="28.7"/><rect class="st14" height="1.7" width="8.7" x="26.1" y="32.2"/></g></g></g></svg>