<?xml version="1.0" ?><svg id="Layer_1" style="enable-background:new 0 0 64 64;" version="1.1" viewBox="0 0 64 64" xml:space="preserve" xmlns="http://www.w3.org/2000/svg" xmlns:xlink="http://www.w3.org/1999/xlink"><style type="text/css">
	.st0{fill:#62BEE7;}
	.st1{fill:#474E5E;}
	.st2{fill:#F3EEE4;}
	.st3{fill:#FFFFFF;}
	.st4{fill:#E8DCCA;}
	.st5{opacity:0.1;fill:#231F20;}
	.st6{fill:#506268;}
	.st7{fill:#EB5151;}
	.st8{fill:#C64444;}
	.st9{fill:#9CCB5B;}
	.st10{fill:#404A4C;}
	.st11{fill:#676767;}
	.st12{fill:#E0E1E5;}
	.st13{fill:#9D9EA0;}
	.st14{fill:#B3B4B7;}
	.st15{opacity:0.1;}
	.st16{fill:#231F20;}
	.st17{fill:#FACC20;}
	.st18{fill:#FDEF34;}
	.st19{fill:#F7A90B;}
	.st20{fill:#20B8EA;}
	.st21{fill:#00A8EA;}
	.st22{fill:#33D3F4;}
	.st23{opacity:0.25;fill:#FFFFFF;}
	.st24{fill:#CACBCE;}
	.st25{fill:#2E3545;}
	.st26{fill:#8DAF4A;}
	.st27{fill:#F9C2AF;}
	.st28{fill:#AFDDF4;}
	.st29{fill:#677177;}
	.st30{fill:#FFEDB3;}
	.st31{fill:#695652;}
	.st32{fill:#30A7BF;}
	.st33{fill:#4D5556;}
	.st34{opacity:0.35;}
	.st35{fill:#FFCB04;}
	.st36{fill:#99E9FA;}
	.st37{opacity:0.2;}
	.st38{opacity:3.000000e-02;}
	.st39{fill:#9ECA5B;}
	.st40{fill:#98BA56;}
	.st41{fill:#40EEFF;}
	.st42{fill:#FF6A52;}
	.st43{opacity:0.1;fill:#FFFFFF;}
	.st44{opacity:0.4;}
	.st45{fill:#57606D;}
	.st46{fill:#BACA5B;}
	.st47{opacity:0.25;}
	.st48{opacity:5.000000e-02;fill:#231F20;}
	.st49{opacity:0.2;fill:#FFFFFF;}
	.st50{opacity:0.3;}
	.st51{fill:#FFD82F;}
	.st52{fill:#F4C121;}
	.st53{fill:#EF9D0A;}
	.st54{fill:#F9E532;}
	.st55{fill:#F4C01E;}
	.st56{fill:#FFE14D;}
	.st57{fill:#B7C156;}
	.st58{fill:#DBA92C;}
	.st59{fill:#363D4D;}
	.st60{fill:#3F4656;}
	.st61{fill:#463E33;}
	.st62{fill:none;}
	.st63{opacity:4.000000e-02;}
	.st64{fill:#4DB6AC;}
	.st65{fill:#CADE49;}
	.st66{fill:#9FD343;}
	.st67{fill:#AAD643;}
	.st68{fill:#82C736;}
	.st69{opacity:0.3;fill:#FFFFFF;}
	.st70{fill:#FFD640;}
	.st71{opacity:0.5;}
	.st72{opacity:0.6;}
</style><g><circle class="st26" cx="32" cy="32" r="32"/><g><g><path class="st3" d="M45.6,49.9V22.7h0v-11c0-1.1-0.9-1.9-1.9-1.9H11.8c-1.1,0-1.9,0.9-1.9,1.9v38.1c0,2.4,1.9,4.3,4.3,4.3h35.7     C47.5,54.1,45.6,52.2,45.6,49.9z"/></g><g><path class="st12" d="M49.9,54.2L49.9,54.2c2.4,0,4.3-1.9,4.3-4.3v-25c0-1.2-1-2.1-2.1-2.1h-6.4v27.2     C45.6,52.2,47.5,54.2,49.9,54.2z"/></g><g><path class="st14" d="M49.9,24.9c0-1.2,1-2.1,2.1-2.1l0,0h-2.1h-2.1h-2.1v15.7h4.3V24.9z"/></g><g><rect class="st7" height="7.2" width="27.2" x="14.1" y="14.1"/></g><g><rect class="st8" height="7.2" width="13.6" x="14.1" y="14.1"/></g><g><rect class="st22" height="13.6" width="13.6" x="14.1" y="24.3"/></g><g><rect class="st12" height="1.5" width="10.5" x="30.9" y="26.6"/><rect class="st12" height="1.5" width="10.5" x="30.9" y="29.9"/><rect class="st12" height="1.5" width="10.5" x="30.9" y="33.1"/><rect class="st12" height="1.5" width="10.5" x="30.9" y="36.4"/></g><g><rect class="st12" height="1.5" width="27.2" x="14.1" y="39.6"/><rect class="st12" height="1.5" width="27.2" x="14.1" y="42.9"/><rect class="st12" height="1.5" width="27.2" x="14.1" y="46.1"/></g><g><g><path class="st41" d="M20.9,36.9c-3.1,0-5.7-2.5-5.7-5.7s2.6-5.7,5.7-5.7s5.7,2.6,5.7,5.7S24.1,36.9,20.9,36.9z M20.9,26.1      c-2.8,0-5.1,2.3-5.1,5.1c0,2.8,2.3,5.1,5.1,5.1c2.8,0,5.1-2.3,5.1-5.1C26,28.4,23.7,26.1,20.9,26.1z"/></g><g><g><path class="st41" d="M20.9,28.9c-1.4,0-2.8-0.5-3.8-1.5l0.4-0.5c0.9,0.8,2.1,1.3,3.4,1.3c1.3,0,2.5-0.5,3.4-1.3l0.4,0.5       C23.7,28.4,22.3,28.9,20.9,28.9z"/></g><g><path class="st41" d="M24.3,35.4c-0.9-0.8-2.1-1.3-3.4-1.3c-1.3,0-2.5,0.5-3.4,1.3L17.1,35c1-0.9,2.4-1.5,3.8-1.5       c1.4,0,2.8,0.5,3.8,1.5L24.3,35.4z"/></g></g><g><path class="st41" d="M20.9,36.9c-1.6,0-2.9-2.5-2.9-5.7c0-3.2,1.3-5.7,2.9-5.7s2.9,2.5,2.9,5.7C23.8,34.4,22.6,36.9,20.9,36.9z       M20.9,26.1c-1.3,0-2.3,2.3-2.3,5.1c0,2.7,1.1,5.1,2.3,5.1s2.3-2.3,2.3-5.1C23.2,28.4,22.2,26.1,20.9,26.1z"/></g><g><rect class="st41" height="10.9" width="0.6" x="20.6" y="25.7"/></g><g><rect class="st41" height="0.6" width="10.9" x="15.5" y="30.8"/></g></g></g></g></svg>