<?xml version="1.0" ?><svg id="Layer_1" style="enable-background:new 0 0 64 64;" version="1.1" viewBox="0 0 64 64" xml:space="preserve" xmlns="http://www.w3.org/2000/svg" xmlns:xlink="http://www.w3.org/1999/xlink"><style type="text/css">
	.st0{fill:#62BEE7;}
	.st1{fill:#474E5E;}
	.st2{fill:#F3EEE4;}
	.st3{fill:#FFFFFF;}
	.st4{fill:#E8DCCA;}
	.st5{opacity:0.1;fill:#231F20;}
	.st6{fill:#506268;}
	.st7{fill:#EB5151;}
	.st8{fill:#C64444;}
	.st9{fill:#9CCB5B;}
	.st10{fill:#404A4C;}
	.st11{fill:#676767;}
	.st12{fill:#E0E1E5;}
	.st13{fill:#9D9EA0;}
	.st14{fill:#B3B4B7;}
	.st15{opacity:0.1;}
	.st16{fill:#231F20;}
	.st17{fill:#FACC20;}
	.st18{fill:#FDEF34;}
	.st19{fill:#F7A90B;}
	.st20{fill:#20B8EA;}
	.st21{fill:#00A8EA;}
	.st22{fill:#33D3F4;}
	.st23{opacity:0.25;fill:#FFFFFF;}
	.st24{fill:#CACBCE;}
	.st25{fill:#2E3545;}
	.st26{fill:#8DAF4A;}
	.st27{fill:#F9C2AF;}
	.st28{fill:#AFDDF4;}
	.st29{fill:#677177;}
	.st30{fill:#FFEDB3;}
	.st31{fill:#695652;}
	.st32{fill:#30A7BF;}
	.st33{fill:#4D5556;}
	.st34{opacity:0.35;}
	.st35{fill:#FFCB04;}
	.st36{fill:#99E9FA;}
	.st37{opacity:0.2;}
	.st38{opacity:3.000000e-02;}
	.st39{fill:#9ECA5B;}
	.st40{fill:#98BA56;}
	.st41{fill:#40EEFF;}
	.st42{fill:#FF6A52;}
	.st43{opacity:0.1;fill:#FFFFFF;}
	.st44{opacity:0.4;}
	.st45{fill:#57606D;}
	.st46{fill:#BACA5B;}
	.st47{opacity:0.25;}
	.st48{opacity:5.000000e-02;fill:#231F20;}
	.st49{opacity:0.2;fill:#FFFFFF;}
	.st50{opacity:0.3;}
	.st51{fill:#FFD82F;}
	.st52{fill:#F4C121;}
	.st53{fill:#EF9D0A;}
	.st54{fill:#F9E532;}
	.st55{fill:#F4C01E;}
	.st56{fill:#FFE14D;}
	.st57{fill:#B7C156;}
	.st58{fill:#DBA92C;}
	.st59{fill:#363D4D;}
	.st60{fill:#3F4656;}
	.st61{fill:#463E33;}
	.st62{fill:none;}
	.st63{opacity:4.000000e-02;}
	.st64{fill:#4DB6AC;}
	.st65{fill:#CADE49;}
	.st66{fill:#9FD343;}
	.st67{fill:#AAD643;}
	.st68{fill:#82C736;}
	.st69{opacity:0.3;fill:#FFFFFF;}
	.st70{fill:#FFD640;}
	.st71{opacity:0.5;}
	.st72{opacity:0.6;}
</style><g><circle class="st7" cx="32" cy="32" r="32"/><g><g><path class="st17" d="M48.6,53.9c0,1.1-0.9,2.1-2.1,2.1H15.1c-1.1,0-2.1-0.9-2.1-2.1V14.7c0-1.1,0.9-2.1,2.1-2.1h7.2v3.9h17v-3.9     h7.2c1.1,0,2.1,0.9,2.1,2.1V53.9z"/></g><path class="st18" d="M36.7,16.5C32.5,26.9,23.8,35,13,38.3V14.7c0-1.1,0.9-2.1,2.1-2.1h7.2v3.9H36.7z"/><path class="st19" d="M48.6,32.2v21.7c0,1.2-0.9,2.1-2.1,2.1H30.3C31,44.9,38.5,35.6,48.6,32.2z"/><g><rect class="st3" height="35.6" width="27.9" x="16.9" y="16.5"/></g><g><rect class="st2" height="0.6" width="27.9" x="16.9" y="52.1"/></g><g><rect class="st4" height="0.6" width="27.9" x="16.9" y="52.7"/></g><path class="st10" d="M30.8,8c-1.3,0-2.3,1-2.3,2.3c0,1.3,1,2.3,2.3,2.3s2.3-1,2.3-2.3C33.1,9,32.1,8,30.8,8z M30.8,11.7    c-0.8,0-1.4-0.6-1.4-1.4c0-0.8,0.6-1.4,1.4-1.4s1.4,0.6,1.4,1.4C32.2,11.1,31.6,11.7,30.8,11.7z"/><g><path class="st10" d="M33.1,10.3c0,1.3-1,2.3-2.3,2.3c-1.3,0-2.3-1-2.3-2.3h-6.2v6.2h17v-6.2H33.1z"/></g><g><polygon class="st4" points="33.4,51.5 39.8,49.1 35.7,45    "/><polygon class="st31" points="34.3,49 33.4,51.5 35.8,50.6    "/><path class="st0" d="M36,44.7c-0.7,0.7-0.7,1.7-0.2,2.2c0.6,0.6,1.6,0.5,2.2-0.2l16.2-16.2l-2-2L36,44.7z"/><path class="st32" d="M38.1,46.8c-0.7,0.7-0.7,1.7-0.2,2.2c0.6,0.6,1.6,0.5,2.2-0.2l16.2-16.2l-2-2L38.1,46.8z"/><rect class="st31" height="5.8" transform="matrix(0.7071 -0.7071 0.7071 0.7071 -5.3515 47.4822)" width="1" x="54.1" y="27.3"/><path class="st19" d="M54,26.8l-1,1l4.1,4.1l1-1c0.3-0.3,0.3-0.9,0-1.2l-2.9-2.9C54.9,26.4,54.3,26.4,54,26.8z"/></g><g><g><rect class="st12" height="2.3" width="1.5" x="20.4" y="21.2"/><rect class="st12" height="2.3" width="17.3" x="24" y="21.2"/></g><g><rect class="st12" height="2.3" width="1.5" x="20.4" y="26.1"/><rect class="st12" height="2.3" width="17.3" x="24" y="26.1"/></g><g><rect class="st12" height="2.3" width="1.5" x="20.4" y="30.9"/><rect class="st12" height="2.3" width="17.3" x="24" y="30.9"/></g><g><rect class="st12" height="2.3" width="1.5" x="20.4" y="35.7"/><rect class="st12" height="2.3" width="17.3" x="24" y="35.7"/></g></g><path class="st33" d="M33.1,10.3c0,0.9-0.5,1.7-1.3,2.1c0,0,0,0,0,0h5c0.6,0,1.2,0.5,1.2,1c0,0.6-0.5,1-1.2,1h-5    c-0.6,0-1.2,0.5-1.2,1c0,0.6,0.5,1,1.2,1h7.5v-6.2H33.1z"/></g></g></svg>