<?xml version="1.0" ?><svg id="Layer_1" style="enable-background:new 0 0 64 64;" version="1.1" viewBox="0 0 64 64" xml:space="preserve" xmlns="http://www.w3.org/2000/svg" xmlns:xlink="http://www.w3.org/1999/xlink"><style type="text/css">
	.st0{fill:#62BEE7;}
	.st1{fill:#474E5E;}
	.st2{fill:#F3EEE4;}
	.st3{fill:#FFFFFF;}
	.st4{fill:#E8DCCA;}
	.st5{opacity:0.1;fill:#231F20;}
	.st6{fill:#506268;}
	.st7{fill:#EB5151;}
	.st8{fill:#C64444;}
	.st9{fill:#9CCB5B;}
	.st10{fill:#404A4C;}
	.st11{fill:#676767;}
	.st12{fill:#E0E1E5;}
	.st13{fill:#9D9EA0;}
	.st14{fill:#B3B4B7;}
	.st15{opacity:0.1;}
	.st16{fill:#231F20;}
	.st17{fill:#FACC20;}
	.st18{fill:#FDEF34;}
	.st19{fill:#F7A90B;}
	.st20{fill:#20B8EA;}
	.st21{fill:#00A8EA;}
	.st22{fill:#33D3F4;}
	.st23{opacity:0.25;fill:#FFFFFF;}
	.st24{fill:#CACBCE;}
	.st25{fill:#2E3545;}
	.st26{fill:#8DAF4A;}
	.st27{fill:#F9C2AF;}
	.st28{fill:#AFDDF4;}
	.st29{fill:#677177;}
	.st30{fill:#FFEDB3;}
	.st31{fill:#695652;}
	.st32{fill:#30A7BF;}
	.st33{fill:#4D5556;}
	.st34{opacity:0.35;}
	.st35{fill:#FFCB04;}
	.st36{fill:#99E9FA;}
	.st37{opacity:0.2;}
	.st38{opacity:3.000000e-02;}
	.st39{fill:#9ECA5B;}
	.st40{fill:#98BA56;}
	.st41{fill:#40EEFF;}
	.st42{fill:#FF6A52;}
	.st43{opacity:0.1;fill:#FFFFFF;}
	.st44{opacity:0.4;}
	.st45{fill:#57606D;}
	.st46{fill:#BACA5B;}
	.st47{opacity:0.25;}
	.st48{opacity:5.000000e-02;fill:#231F20;}
	.st49{opacity:0.2;fill:#FFFFFF;}
	.st50{opacity:0.3;}
	.st51{fill:#FFD82F;}
	.st52{fill:#F4C121;}
	.st53{fill:#EF9D0A;}
	.st54{fill:#F9E532;}
	.st55{fill:#F4C01E;}
	.st56{fill:#FFE14D;}
	.st57{fill:#B7C156;}
	.st58{fill:#DBA92C;}
	.st59{fill:#363D4D;}
	.st60{fill:#3F4656;}
	.st61{fill:#463E33;}
	.st62{fill:none;}
	.st63{opacity:4.000000e-02;}
	.st64{fill:#4DB6AC;}
	.st65{fill:#CADE49;}
	.st66{fill:#9FD343;}
	.st67{fill:#AAD643;}
	.st68{fill:#82C736;}
	.st69{opacity:0.3;fill:#FFFFFF;}
	.st70{fill:#FFD640;}
	.st71{opacity:0.5;}
	.st72{opacity:0.6;}
</style><g><circle class="st35" cx="32" cy="32" r="32"/><g><circle class="st3" cx="32" cy="32" r="21.7"/><path class="st62" d="M51.7,32c0,10.9-8.9,19.7-19.7,19.7S12.3,42.9,12.3,32c0-10.9,8.9-19.7,19.7-19.7S51.7,21.1,51.7,32z"/><path class="st14" d="M56,32c0,13.2-10.8,24-24,24c1.2,0,2.1-1,2.1-2.1c0-1.2-1-2.1-2.1-2.1c10.9,0,19.7-8.9,19.7-19.7    c0-10.9-8.9-19.7-19.7-19.7c-1.2,0-2.1-1-2.1-2.1C29.9,9,30.8,8,32,8C45.2,8,56,18.8,56,32z"/><path class="st12" d="M34.1,53.9c0,1.2-1,2.1-2.1,2.1C18.8,56,8,45.2,8,32C8,18.8,18.8,8,32,8c-1.2,0-2.1,1-2.1,2.1    c0,1.2,1,2.1,2.1,2.1c-10.9,0-19.7,8.9-19.7,19.7c0,10.9,8.9,19.7,19.7,19.7C33.2,51.7,34.1,52.7,34.1,53.9z"/><path class="st62" d="M46,32c0,7.7-6.3,14-14,14s-14-6.3-14-14c0-7.7,6.3-14,14-14S46,24.3,46,32z"/><path class="st1" d="M32,13.8c10,0,18.2,8.2,18.2,18.2c0-1.2-1-2.1-2.1-2.1c-1.2,0-2.1,1-2.1,2.1c0-7.7-6.3-14-14-14    c-7.7,0-14,6.3-14,14c0,1.2-1,2.1-2.1,2.1c-1.2,0-2.1-1-2.1-2.1C13.8,22,22,13.8,32,13.8z"/><path class="st25" d="M48.1,29.9c1.2,0,2.1,1,2.1,2.1c0,10-8.2,18.2-18.2,18.2C22,50.2,13.8,42,13.8,32c0,1.2,1,2.1,2.1,2.1    c1.2,0,2.1-1,2.1-2.1c0,7.7,6.3,14,14,14c7.7,0,14-6.3,14-14C46,30.8,46.9,29.9,48.1,29.9z"/><path class="st62" d="M40.2,32c0,4.5-3.7,8.2-8.2,8.2s-8.2-3.7-8.2-8.2c0-4.5,3.7-8.2,8.2-8.2S40.2,27.5,40.2,32z"/><path class="st22" d="M44.4,32c0,6.9-5.6,12.4-12.4,12.4c1.2,0,2.1-1,2.1-2.1c0-1.2-1-2.1-2.1-2.1c4.5,0,8.2-3.7,8.2-8.2    c0-4.5-3.7-8.2-8.2-8.2c-1.2,0-2.1-1-2.1-2.1c0-1.2,1-2.1,2.1-2.1C38.9,19.6,44.4,25.2,44.4,32z"/><path class="st21" d="M34.1,42.3c0,1.2-1,2.1-2.1,2.1c-6.9,0-12.4-5.6-12.4-12.4c0-6.9,5.6-12.4,12.4-12.4c-1.2,0-2.1,1-2.1,2.1    c0,1.2,1,2.1,2.1,2.1c-4.5,0-8.2,3.7-8.2,8.2c0,4.5,3.7,8.2,8.2,8.2C33.2,40.2,34.1,41.1,34.1,42.3z"/><path class="st62" d="M34.4,32c0,1.3-1.1,2.4-2.4,2.4s-2.4-1.1-2.4-2.4c0-1.3,1.1-2.4,2.4-2.4S34.4,30.7,34.4,32z"/><path class="st7" d="M27.5,34.1c-1.2,0-2.1-1-2.1-2.1c0-3.7,3-6.6,6.6-6.6c3.7,0,6.6,3,6.6,6.6c0-1.2-1-2.1-2.1-2.1    c-1.2,0-2.1,1-2.1,2.1c0-1.3-1.1-2.4-2.4-2.4c-1.3,0-2.4,1.1-2.4,2.4C29.6,33.2,28.7,34.1,27.5,34.1z"/><path class="st8" d="M32,38.6c-3.7,0-6.6-3-6.6-6.6c0,1.2,1,2.1,2.1,2.1c1.2,0,2.1-1,2.1-2.1c0,1.3,1.1,2.4,2.4,2.4    c1.3,0,2.4-1.1,2.4-2.4c0-1.2,1-2.1,2.1-2.1c1.2,0,2.1,1,2.1,2.1C38.6,35.7,35.7,38.6,32,38.6z"/><path class="st19" d="M50.6,13.7C50.6,13.7,50.6,13.7,50.6,13.7l0-2.2l-2.2,2.2l0,1.1L31.5,31.7c-0.3,0.3-0.3,0.8,0,1.1    s0.8,0.3,1.1,0l16.9-16.9l1.1,0l2.2-2.2L50.6,13.7L50.6,13.7z"/></g></g></svg>