<?xml version="1.0" ?><svg id="Layer_1" style="enable-background:new 0 0 64 64;" version="1.1" viewBox="0 0 64 64" xml:space="preserve" xmlns="http://www.w3.org/2000/svg" xmlns:xlink="http://www.w3.org/1999/xlink"><style type="text/css">
	.st0{fill:#62BEE7;}
	.st1{fill:#474E5E;}
	.st2{fill:#F3EEE4;}
	.st3{fill:#FFFFFF;}
	.st4{fill:#E8DCCA;}
	.st5{opacity:0.1;fill:#231F20;}
	.st6{fill:#506268;}
	.st7{fill:#EB5151;}
	.st8{fill:#C64444;}
	.st9{fill:#9CCB5B;}
	.st10{fill:#404A4C;}
	.st11{fill:#676767;}
	.st12{fill:#E0E1E5;}
	.st13{fill:#9D9EA0;}
	.st14{fill:#B3B4B7;}
	.st15{opacity:0.1;}
	.st16{fill:#231F20;}
	.st17{fill:#FACC20;}
	.st18{fill:#FDEF34;}
	.st19{fill:#F7A90B;}
	.st20{fill:#20B8EA;}
	.st21{fill:#00A8EA;}
	.st22{fill:#33D3F4;}
	.st23{opacity:0.25;fill:#FFFFFF;}
	.st24{fill:#CACBCE;}
	.st25{fill:#2E3545;}
	.st26{fill:#8DAF4A;}
	.st27{fill:#F9C2AF;}
	.st28{fill:#AFDDF4;}
	.st29{fill:#677177;}
	.st30{fill:#FFEDB3;}
	.st31{fill:#695652;}
	.st32{fill:#30A7BF;}
	.st33{fill:#4D5556;}
	.st34{opacity:0.35;}
	.st35{fill:#FFCB04;}
	.st36{fill:#99E9FA;}
	.st37{opacity:0.2;}
	.st38{opacity:3.000000e-02;}
	.st39{fill:#9ECA5B;}
	.st40{fill:#98BA56;}
	.st41{fill:#40EEFF;}
	.st42{fill:#FF6A52;}
	.st43{opacity:0.1;fill:#FFFFFF;}
	.st44{opacity:0.4;}
	.st45{fill:#57606D;}
	.st46{fill:#BACA5B;}
	.st47{opacity:0.25;}
	.st48{opacity:5.000000e-02;fill:#231F20;}
	.st49{opacity:0.2;fill:#FFFFFF;}
	.st50{opacity:0.3;}
	.st51{fill:#FFD82F;}
	.st52{fill:#F4C121;}
	.st53{fill:#EF9D0A;}
	.st54{fill:#F9E532;}
	.st55{fill:#F4C01E;}
	.st56{fill:#FFE14D;}
	.st57{fill:#B7C156;}
	.st58{fill:#DBA92C;}
	.st59{fill:#363D4D;}
	.st60{fill:#3F4656;}
	.st61{fill:#463E33;}
	.st62{fill:none;}
	.st63{opacity:4.000000e-02;}
	.st64{fill:#4DB6AC;}
	.st65{fill:#CADE49;}
	.st66{fill:#9FD343;}
	.st67{fill:#AAD643;}
	.st68{fill:#82C736;}
	.st69{opacity:0.3;fill:#FFFFFF;}
	.st70{fill:#FFD640;}
	.st71{opacity:0.5;}
	.st72{opacity:0.6;}
</style><g><circle class="st1" cx="32" cy="32" r="32"/><g><g><path class="st17" d="M47.7,26.9c-1.1-0.8-2.5-1.3-3.9-1.3c-0.8,0-1.7,0.2-2.4,0.4c-2.6,1-4.4,3.5-4.4,6.4v4.1     c-0.3,0.2-0.5,0.4-0.8,0.6h-2.6v8.1c-1.5,0.4-3.1,0.6-4.7,0.6C18.4,45.8,10,37.3,10,26.9C10,16.5,18.4,8,28.9,8     C39.3,8,47.7,16.5,47.7,26.9z"/></g><g><path class="st18" d="M41.4,26c-2.6,1-4.4,3.5-4.4,6.4v4.1c-0.3,0.2-0.5,0.4-0.8,0.6h-2.6v1.4c-1.5,0.6-3,0.9-4.7,0.9     c-6.9,0-12.6-5.6-12.6-12.6c0-7,5.6-12.6,12.6-12.6C35.5,14.3,41,19.5,41.4,26z"/></g><g><path class="st42" d="M43.8,56L43.8,56c-5.6,0-10.2-4.6-10.2-10.2v-8.7H54v8.7C54,51.4,49.4,56,43.8,56z"/></g><path class="st3" d="M52.3,31.9c0-4.6-3.8-8.4-8.5-8.4c-4.7,0-8.5,3.8-8.5,8.4v5.3H37v-5.3c0-3.7,3.1-6.7,6.8-6.7    c3.8,0,6.8,3,6.8,6.7v5.3h1.7V31.9z"/><path class="st12" d="M43.8,25.1c-3.8,0-6.8,3-6.8,6.7v5.3h1.7v-5.3c0-2.8,2.3-5.1,5.1-5.1c2.8,0,5.1,2.3,5.1,5.1v5.3h1.7v-5.3    C50.6,28.2,47.6,25.1,43.8,25.1z"/><g><g><g><path class="st42" d="M33.9,28.3c-0.2-0.6-0.8-2.2-4.4-2.8v-4.3c0.9,0.3,1.4,0.9,1.6,1.7c0.2,0.7,0.6,1.1,1.3,1.1       c0.4,0,2.5-0.6,0.3-3.4c-0.4-0.5-1-1.2-3.2-1.5v-1.7h-1.3v1.7c-4,0.4-4.4,3-4.4,4.2c0,3.5,3.5,4.1,4.4,4.4v4.8       c-1.7-0.4-2-2.1-2.2-2.7c-0.3-0.8-0.9-0.8-1.2-0.8c-1,0.1-1.3,1-1.3,1.3c0,0.5,0.2,2.5,2.7,3.8c0.6,0.3,1.3,0.5,2.1,0.6l0,1.6       h1.3v-1.6c1-0.1,1.8-0.3,2.5-0.8C34,32.7,34.7,30.4,33.9,28.3z M28.3,25.1c-1-0.5-1.8-0.7-1.8-2c0-0.6,0.2-1.5,1.8-2V25.1z        M29.6,32.7v-4.5c2.1,0.7,2.2,1.6,2.2,2.2C31.7,30.9,31.6,32.2,29.6,32.7z"/></g></g></g><g><g><g><g><path class="st19" d="M28.9,11.9c-0.4,0-0.8-0.4-0.8-0.8s0.4-0.8,0.8-0.8s0.8,0.4,0.8,0.8v0C29.6,11.6,29.3,11.9,28.9,11.9z"/></g></g><g><g><path class="st19" d="M28.9,43.4c-0.4,0-0.8-0.4-0.8-0.8c0-0.4,0.4-0.8,0.8-0.8s0.8,0.4,0.8,0.8v0        C29.6,43,29.3,43.4,28.9,43.4z"/></g></g></g><g><g><g><path class="st19" d="M34,12.8c-0.4-0.1-0.6-0.6-0.5-1c0.1-0.4,0.6-0.6,1-0.5c0.4,0.1,0.6,0.6,0.5,1l0,0        C34.8,12.8,34.4,13,34,12.8z"/></g></g><g><g><path class="st19" d="M23.2,42.4c-0.4-0.1-0.6-0.6-0.5-1s0.6-0.6,1-0.5c0.4,0.1,0.6,0.6,0.5,1l0,0        C24.1,42.3,23.6,42.5,23.2,42.4z"/></g></g></g><g><g><g><path class="st19" d="M38.5,15.4c-0.3-0.3-0.4-0.8-0.1-1.1s0.8-0.4,1.1-0.1c0.3,0.3,0.4,0.8,0.1,1.1l0,0        C39.3,15.7,38.8,15.7,38.5,15.4z"/></g></g><g><g><path class="st19" d="M18.2,39.5c-0.3-0.3-0.4-0.8-0.1-1.1c0.3-0.3,0.8-0.4,1.1-0.1s0.4,0.8,0.1,1.1l0,0        C19.1,39.8,18.6,39.8,18.2,39.5z"/></g></g></g><g><g><g><path class="st19" d="M41.8,19.4c-0.2-0.4-0.1-0.9,0.3-1.1c0.4-0.2,0.9-0.1,1.1,0.3c0.2,0.4,0.1,0.9-0.3,1.1l0,0        C42.5,19.9,42,19.8,41.8,19.4z"/></g></g><g><g><path class="st19" d="M14.6,35.1c-0.2-0.4-0.1-0.9,0.3-1.1s0.9-0.1,1.1,0.3c0.2,0.4,0.1,0.9-0.3,1.1l0,0        C15.3,35.6,14.8,35.5,14.6,35.1z"/></g></g></g><g><g><g><path class="st19" d="M12.6,29.7c-0.1-0.4,0.2-0.8,0.6-0.9c0.4-0.1,0.8,0.2,0.9,0.6c0.1,0.4-0.2,0.8-0.6,0.9l0,0        C13.1,30.5,12.7,30.2,12.6,29.7z"/></g></g></g><g><g><g><path class="st19" d="M12.6,24c0.1-0.4,0.5-0.7,0.9-0.6c0.4,0.1,0.7,0.5,0.6,0.9c-0.1,0.4-0.5,0.7-0.9,0.6l0,0        C12.8,24.8,12.5,24.4,12.6,24z"/></g></g></g><g><g><g><path class="st19" d="M14.6,18.6c0.2-0.4,0.7-0.5,1.1-0.3c0.4,0.2,0.5,0.7,0.3,1.1c-0.2,0.4-0.7,0.5-1.1,0.3l0,0        C14.5,19.5,14.3,19,14.6,18.6z"/></g></g></g><g><g><g><path class="st19" d="M18.2,14.2c0.3-0.3,0.8-0.2,1.1,0.1c0.3,0.3,0.2,0.8-0.1,1.1c-0.3,0.3-0.8,0.2-1.1-0.1l0,0        C17.9,15,17.9,14.5,18.2,14.2z"/></g></g></g><g><path class="st19" d="M23.2,11.3c0.4-0.1,0.9,0.1,1,0.5c0.1,0.4-0.1,0.9-0.5,1c-0.4,0.1-0.9-0.1-1-0.5l0,0      C22.6,11.9,22.8,11.5,23.2,11.3z"/></g></g><path class="st25" d="M46,45.4c0-1.2-1-2.2-2.2-2.2c-1.2,0-2.2,1-2.2,2.2c0,0.9,0.6,1.7,1.4,2v2.4h1.7v-2.4    C45.4,47.1,46,46.4,46,45.4z"/><g class="st50"><path class="st3" d="M35.8,9.3L11.3,33.8c-0.4-0.9-0.7-1.9-0.9-2.9L32.8,8.4C33.8,8.6,34.8,8.9,35.8,9.3z"/><path class="st3" d="M43.1,14.5L16.4,41.1c-1.3-1.1-2.4-2.4-3.3-3.8l26.2-26.2C40.7,12.1,42,13.2,43.1,14.5z"/></g><path class="st23" d="M35.6,45.8v-8.7h-2v8.7c0,5.6,4.6,10.2,10.2,10.2h0c0.3,0,0.7,0,1-0.1C39.6,55.4,35.6,51.1,35.6,45.8z"/><path class="st5" d="M52,37.1v8.7c0,5.3-4,9.7-9.2,10.2c0.3,0,0.7,0.1,1,0.1h0C49.4,56,54,51.4,54,45.8v-8.7H52z"/></g></g></svg>