<?xml version="1.0" ?><svg id="Layer_1" style="enable-background:new 0 0 200 200;" version="1.1" viewBox="0 0 200 200" xml:space="preserve" xmlns="http://www.w3.org/2000/svg" xmlns:xlink="http://www.w3.org/1999/xlink"><style type="text/css">
	.st0{fill:url(#SVGID_1_);}
</style><linearGradient gradientUnits="userSpaceOnUse" id="SVGID_1_" x1="160.6007" x2="18.9073" y1="176.006" y2="34.3127"><stop offset="0" style="stop-color:#007FE2"/><stop offset="1" style="stop-color:#39D3B8"/></linearGradient><path class="st0" d="M146.168,55.811h-1.678c-1.918,0-3.472,1.554-3.472,3.472c0,1.918,1.554,3.472,3.472,3.472h1.678  c6.557,0,11.891,5.343,11.891,11.909v81.483c0,6.567-5.334,11.909-11.891,11.909H53.832c-6.557,0-11.891-5.342-11.891-11.909V74.664  c0-6.567,5.334-11.909,11.891-11.909h20.429v11.174c0,1.918,1.554,3.472,3.472,3.472s3.472-1.554,3.472-3.472V50.767  c0-10.379,8.431-18.823,18.795-18.823s18.796,8.444,18.796,18.823v5.044H99.955c-1.918,0-3.472,1.554-3.472,3.472  c0,1.918,1.554,3.472,3.472,3.472h18.841v11.174c0,1.918,1.554,3.472,3.472,3.472c1.918,0,3.472-1.554,3.472-3.472V50.767  C125.741,36.559,114.194,25,100,25c-14.193,0-25.739,11.559-25.739,25.767v5.044H53.832c-10.385,0-18.835,8.457-18.835,18.854  v81.483c0,10.396,8.45,18.853,18.835,18.853h92.337c10.385,0,18.835-8.457,18.835-18.853V74.664  C165.004,64.268,156.554,55.811,146.168,55.811z"/></svg>