<?xml version="1.0" ?><svg id="Layer_1" style="enable-background:new 0 0 200 200;" version="1.1" viewBox="0 0 200 200" xml:space="preserve" xmlns="http://www.w3.org/2000/svg" xmlns:xlink="http://www.w3.org/1999/xlink"><style type="text/css">
	.st0{fill:url(#SVGID_1_);}
	.st1{fill:url(#SVGID_2_);}
	.st2{fill:url(#SVGID_3_);}
	.st3{fill:url(#SVGID_4_);}
	.st4{fill:url(#SVGID_5_);}
	.st5{fill:url(#SVGID_6_);}
	.st6{fill:url(#SVGID_7_);}
	.st7{fill:url(#SVGID_8_);}
	.st8{fill:url(#SVGID_9_);}
	.st9{fill:url(#SVGID_10_);}
	.st10{fill:url(#SVGID_11_);}
</style><g><linearGradient gradientUnits="userSpaceOnUse" id="SVGID_1_" x1="169.8249" x2="40.821" y1="158.7138" y2="29.7099"><stop offset="0" style="stop-color:#007FE2"/><stop offset="1" style="stop-color:#39D3B8"/></linearGradient><path class="st0" d="M28.472,136.681c1.918,0,3.472-1.554,3.472-3.472V54.291c0-3.446,2.804-6.25,6.25-6.25h133.333   c1.918,0,3.472-1.554,3.472-3.472c0-1.918-1.554-3.472-3.472-3.472H38.194C30.919,41.097,25,47.016,25,54.291v78.917   C25,135.126,26.554,136.681,28.472,136.681z"/><linearGradient gradientUnits="userSpaceOnUse" id="SVGID_2_" x1="158.589" x2="29.5851" y1="169.9497" y2="40.9458"><stop offset="0" style="stop-color:#007FE2"/><stop offset="1" style="stop-color:#39D3B8"/></linearGradient><path class="st1" d="M171.528,63.818c-1.918,0-3.472,1.554-3.472,3.472v78.418c0,3.446-2.804,6.25-6.25,6.25H28.472   c-1.918,0-3.472,1.554-3.472,3.472s1.554,3.472,3.472,3.472h133.333c7.275,0,13.194-5.919,13.194-13.194V67.291   C175,65.373,173.446,63.818,171.528,63.818z"/><linearGradient gradientUnits="userSpaceOnUse" id="SVGID_3_" x1="156.2182" x2="27.2143" y1="172.3206" y2="43.3167"><stop offset="0" style="stop-color:#007FE2"/><stop offset="1" style="stop-color:#39D3B8"/></linearGradient><path class="st2" d="M61.545,63.319H50.694c-1.918,0-3.472,1.554-3.472,3.472v10.862c0,1.918,1.554,3.472,3.472,3.472   c1.918,0,3.472-1.554,3.472-3.472v-7.389h7.378c1.918,0,3.472-1.554,3.472-3.472S63.463,63.319,61.545,63.319z"/><linearGradient gradientUnits="userSpaceOnUse" id="SVGID_4_" x1="150.3805" x2="21.3766" y1="178.1582" y2="49.1544"><stop offset="0" style="stop-color:#007FE2"/><stop offset="1" style="stop-color:#39D3B8"/></linearGradient><path class="st3" d="M76.476,133.209c0,1.918,1.554,3.472,3.472,3.472c1.918,0,3.472-1.554,3.472-3.472v-7.389h36.632   c1.918,0,3.472-1.554,3.472-3.472c0-1.918-1.554-3.472-3.472-3.472H79.948c-1.918,0-3.472,1.554-3.472,3.472V133.209z"/><linearGradient gradientUnits="userSpaceOnUse" id="SVGID_5_" x1="170.8449" x2="41.841" y1="157.6938" y2="28.69"><stop offset="0" style="stop-color:#007FE2"/><stop offset="1" style="stop-color:#39D3B8"/></linearGradient><path class="st4" d="M79.948,81.125c1.918,0,3.472-1.554,3.472-3.472v-7.389h7.378c1.918,0,3.472-1.554,3.472-3.472   s-1.554-3.472-3.472-3.472H79.948c-1.918,0-3.472,1.554-3.472,3.472v10.862C76.476,79.571,78.03,81.125,79.948,81.125z"/><linearGradient gradientUnits="userSpaceOnUse" id="SVGID_6_" x1="185.4713" x2="56.4674" y1="143.0674" y2="14.0636"><stop offset="0" style="stop-color:#007FE2"/><stop offset="1" style="stop-color:#39D3B8"/></linearGradient><path class="st5" d="M120.052,63.319H109.2c-1.918,0-3.472,1.554-3.472,3.472v10.862c0,1.918,1.554,3.472,3.472,3.472   c1.918,0,3.472-1.554,3.472-3.472v-7.389h7.38c1.918,0,3.472-1.554,3.472-3.472S121.97,63.319,120.052,63.319z"/><linearGradient gradientUnits="userSpaceOnUse" id="SVGID_7_" x1="200.098" x2="71.0941" y1="128.4407" y2="-0.5632"><stop offset="0" style="stop-color:#007FE2"/><stop offset="1" style="stop-color:#39D3B8"/></linearGradient><path class="st6" d="M149.306,63.319h-10.852c-1.918,0-3.472,1.554-3.472,3.472v10.862c0,1.918,1.554,3.472,3.472,3.472   s3.472-1.554,3.472-3.472v-7.389h7.38c1.918,0,3.472-1.554,3.472-3.472S151.223,63.319,149.306,63.319z"/><linearGradient gradientUnits="userSpaceOnUse" id="SVGID_8_" x1="142.3293" x2="13.3254" y1="186.2095" y2="57.2056"><stop offset="0" style="stop-color:#007FE2"/><stop offset="1" style="stop-color:#39D3B8"/></linearGradient><path class="st7" d="M61.545,91.097H50.694c-1.918,0-3.472,1.554-3.472,3.472v10.862c0,1.918,1.554,3.472,3.472,3.472   c1.918,0,3.472-1.554,3.472-3.472v-7.389h7.378c1.918,0,3.472-1.554,3.472-3.472S63.463,91.097,61.545,91.097z"/><linearGradient gradientUnits="userSpaceOnUse" id="SVGID_9_" x1="156.956" x2="27.9521" y1="171.5827" y2="42.5789"><stop offset="0" style="stop-color:#007FE2"/><stop offset="1" style="stop-color:#39D3B8"/></linearGradient><path class="st8" d="M76.476,105.431c0,1.918,1.554,3.472,3.472,3.472c1.918,0,3.472-1.554,3.472-3.472v-7.389h7.378   c1.918,0,3.472-1.554,3.472-3.472s-1.554-3.472-3.472-3.472H79.948c-1.918,0-3.472,1.554-3.472,3.472V105.431z"/><linearGradient gradientUnits="userSpaceOnUse" id="SVGID_10_" x1="171.5824" x2="42.5785" y1="156.9563" y2="27.9525"><stop offset="0" style="stop-color:#007FE2"/><stop offset="1" style="stop-color:#39D3B8"/></linearGradient><path class="st9" d="M120.052,91.097H109.2c-1.918,0-3.472,1.554-3.472,3.472v10.862c0,1.918,1.554,3.472,3.472,3.472   c1.918,0,3.472-1.554,3.472-3.472v-7.389h7.38c1.918,0,3.472-1.554,3.472-3.472S121.97,91.097,120.052,91.097z"/><linearGradient gradientUnits="userSpaceOnUse" id="SVGID_11_" x1="186.2091" x2="57.2053" y1="142.3296" y2="13.3257"><stop offset="0" style="stop-color:#007FE2"/><stop offset="1" style="stop-color:#39D3B8"/></linearGradient><path class="st10" d="M149.306,91.097h-10.852c-1.918,0-3.472,1.554-3.472,3.472v10.862c0,1.918,1.554,3.472,3.472,3.472   s3.472-1.554,3.472-3.472v-7.389h7.38c1.918,0,3.472-1.554,3.472-3.472S151.223,91.097,149.306,91.097z"/></g></svg>